<svg xmlns="http://www.w3.org/2000/svg" viewBox="0 0 48 48">
  <defs>
    <linearGradient id="leafGrad" x1="0" y1="0" x2="0.8" y2="1">
      <stop offset="0%" stop-color="#FFFDE0"/>
      <stop offset="50%" stop-color="#F8E287"/>
      <stop offset="100%" stop-color="#8B6C10"/>
    </linearGradient>
    <linearGradient id="veinGrad" x1="0" y1="0" x2="0" y2="1">
      <stop offset="0%" stop-color="#C8A020" stop-opacity="0.5"/>
      <stop offset="100%" stop-color="#6D5E0F" stop-opacity="0.7"/>
    </linearGradient>
  </defs>
  <!-- Leaf blade -->
  <path d="M24 4 C36 8 45 20 41 33 C38 42 31 47 24 47 C17 47 10 42 7 33 C3 20 12 8 24 4Z" fill="url(#leafGrad)"/>
  <!-- Midrib -->
  <path d="M24 9 Q25 28 22 45" stroke="url(#veinGrad)" stroke-width="1.8" fill="none" stroke-linecap="round"/>
  <!-- Side veins -->
  <path d="M22 20 Q16 22 13 26" stroke="#C8A020" stroke-width="1" fill="none" stroke-linecap="round" opacity="0.5"/>
  <path d="M23 28 Q17 30 15 34" stroke="#C8A020" stroke-width="1" fill="none" stroke-linecap="round" opacity="0.5"/>
  <path d="M23 22 Q30 20 34 24" stroke="#C8A020" stroke-width="1" fill="none" stroke-linecap="round" opacity="0.5"/>
  <path d="M22 30 Q29 28 33 32" stroke="#C8A020" stroke-width="1" fill="none" stroke-linecap="round" opacity="0.5"/>
</svg>
